<?xml version="1.0" encoding="UTF-8"?>
<svg id="Layer_1" xmlns="http://www.w3.org/2000/svg" version="1.1" viewBox="0 0 509.322 80.19">
  <!-- Generator: Adobe Illustrator 30.4.0, SVG Export Plug-In . SVG Version: 2.1.4 Build 226)  -->
  <path d="M367.638.02v80.17h117.05V.02h-117.05ZM425.938,51.72c-2.31,3.78-5.51,6.74-9.59,8.87s-8.68,3.2-13.8,3.2-9.72-1.07-13.8-3.2c-4.08-2.13-7.27-5.09-9.58-8.87-2.32-3.78-3.47-8.06-3.47-12.82s1.15-9.03,3.47-12.81c2.31-3.79,5.5-6.74,9.58-8.87,4.08-2.13,8.68-3.2,13.8-3.2s9.72,1.07,13.8,3.2,7.28,5.08,9.59,8.87c2.31,3.78,3.47,8.05,3.47,12.81s-1.16,9.04-3.47,12.82ZM472.648,55.87c-1.68,2.42-4.18,4.35-7.52,5.77-3.33,1.43-7.37,2.15-12.13,2.15-3.94,0-7.79-.45-11.53-1.33-3.73-.88-6.81-2.07-9.21-3.57l5.17-11.69c2.27,1.31,4.8,2.37,7.61,3.16,2.81.79,5.51,1.19,8.09,1.19,2.22,0,3.81-.22,4.76-.65.96-.43,1.43-1.07,1.43-1.93,0-1-.62-1.75-1.87-2.25s-3.3-1.04-6.15-1.63c-3.67-.77-6.73-1.6-9.18-2.48-2.45-.89-4.58-2.34-6.39-4.35-1.81-2.02-2.72-4.75-2.72-8.19,0-3,.84-5.72,2.52-8.16,1.67-2.45,4.18-4.38,7.51-5.78,3.33-1.41,7.37-2.11,12.13-2.11,3.27,0,6.47.35,9.62,1.05,3.15.71,5.93,1.74,8.33,3.1l-4.82,11.62c-4.67-2.35-9.09-3.53-13.26-3.53-4.13,0-6.19,1-6.19,2.99,0,.95.61,1.67,1.84,2.14,1.22.48,3.24.99,6.05,1.53,3.62.68,6.68,1.46,9.18,2.35,2.49.88,4.65,2.32,6.49,4.31,1.83,2,2.75,4.72,2.75,8.16,0,2.99-.84,5.7-2.51,8.13Z" fill="#00bfb3"/>
  <g>
    <path d="M0,14.678h14.286v19.162h17.103V14.678h14.284v48.147h-14.284v-17.926H14.286v17.926H0V14.678Z" fill="#00bfb3"/>
    <path d="M53.776,14.678h39.356v10.989h-25.069v7.557h22.735v10.989h-22.735v7.624h25.756v10.989h-40.042V14.678Z" fill="#00bfb3"/>
    <path d="M128.915,62.825l-6.387-12.981h-7.555v12.981h-14.286V14.678h22.46c6.457,0,11.458,1.489,15.006,4.465,3.548,2.978,5.323,7.19,5.323,12.639,0,3.526-.698,6.582-2.095,9.169-1.397,2.587-3.401,4.635-6.01,6.146l9.752,15.728h-16.209ZM114.973,38.855h8.174c2.151,0,3.812-.572,4.979-1.717,1.167-1.145,1.751-2.792,1.751-4.945,0-2.106-.584-3.72-1.751-4.843-1.167-1.12-2.828-1.684-4.979-1.684h-8.174v13.189Z" fill="#00bfb3"/>
    <path d="M187.397,17.015c4.006,2.153,7.143,5.115,9.41,8.894,2.267,3.778,3.401,8.024,3.401,12.741,0,4.762-1.134,9.055-3.401,12.878-2.267,3.823-5.404,6.821-9.41,8.997-4.006,2.175-8.48,3.262-13.426,3.262-4.992,0-9.48-1.087-13.461-3.262-3.984-2.175-7.11-5.173-9.377-8.997-2.265-3.823-3.398-8.116-3.398-12.878,0-4.717,1.134-8.963,3.398-12.741,2.267-3.778,5.393-6.741,9.377-8.894,3.982-2.153,8.469-3.228,13.461-3.228,4.945,0,9.419,1.075,13.426,3.228ZM168.304,27.384c-1.809,1.147-3.251,2.714-4.326,4.706-1.075,1.992-1.614,4.201-1.614,6.627s.539,4.648,1.614,6.662c1.075,2.017,2.517,3.606,4.326,4.773,1.809,1.167,3.767,1.753,5.873,1.753,2.059,0,3.971-.586,5.735-1.753,1.762-1.167,3.148-2.748,4.156-4.74,1.006-1.99,1.509-4.223,1.509-6.696,0-2.426-.503-4.635-1.509-6.627-1.008-1.992-2.383-3.559-4.123-4.706-1.739-1.142-3.662-1.717-5.768-1.717s-4.065.575-5.873,1.717Z" fill="#00bfb3"/>
    <path d="M205.563,14.678h14.286v19.162h17.103V14.678h14.284v48.147h-14.284v-17.926h-17.103v17.926h-14.286V14.678Z" fill="#00bfb3"/>
    <path d="M275.206,49.433c1.556,1.648,3.503,2.473,5.838,2.473,2.289,0,4.165-.814,5.632-2.439,1.464-1.625,2.198-3.812,2.198-6.56V14.678h14.286v28.228c0,4.214-.905,7.888-2.714,11.024-1.809,3.137-4.384,5.563-7.727,7.28-3.342,1.717-7.235,2.576-11.675,2.576-4.487,0-8.424-.859-11.814-2.576-3.389-1.717-6.01-4.143-7.863-7.28-1.856-3.137-2.781-6.81-2.781-11.024V14.678h14.284v28.228c0,2.703.778,4.876,2.336,6.526Z" fill="#00bfb3"/>
    <path d="M343.885,16.156c2.792.984,4.945,2.392,6.457,4.223,1.511,1.831,2.267,3.984,2.267,6.457,0,2.426-.733,4.579-2.198,6.455-1.467,1.878-3.459,3.184-5.976,3.915,2.931.597,5.276,2.005,7.04,4.226,1.762,2.22,2.645,4.865,2.645,7.932,0,2.703-.78,5.071-2.336,7.107-1.556,2.039-3.767,3.606-6.627,4.706-2.862,1.098-6.193,1.648-9.994,1.648h-24.658V14.678h23.627c3.709,0,6.96.494,9.752,1.478ZM336.744,32.432c.823-.756,1.234-1.773,1.234-3.056,0-1.236-.411-2.207-1.234-2.918-.825-.711-1.947-1.064-3.367-1.064h-8.652v8.172h8.652c1.42,0,2.542-.378,3.367-1.134ZM337.739,50.942c1.075-.823,1.614-1.945,1.614-3.365,0-1.328-.539-2.37-1.614-3.126-1.075-.756-2.531-1.109-4.362-1.064h-8.652v8.724h8.652c1.831.045,3.287-.344,4.362-1.169Z" fill="#00bfb3"/>
  </g>
  <path d="M413.228,38.9c0,2.41-.48,4.5-1.43,6.29-.95,1.79-2.23,3.18-3.84,4.15-1.61.97-3.41,1.46-5.41,1.46s-3.79-.49-5.4-1.46c-1.61-.97-2.89-2.36-3.84-4.15-.95-1.79-1.43-3.88-1.43-6.29s.48-4.49,1.43-6.29c.95-1.79,2.23-3.17,3.84-4.14,1.61-.98,3.41-1.46,5.4-1.46,2,0,3.8.48,5.41,1.46,1.61.97,2.89,2.35,3.84,4.14.95,1.8,1.43,3.89,1.43,6.29Z" fill="#00bfb3"/>
  <g>
    <path d="M491.532,19.031h-2.727v-2.467h8.57v2.467h-2.727v6.882h-3.116v-6.882Z" fill="#00bfb3"/>
    <path d="M506.595,25.913v-4.285l-2.078,3.376h-1.428l-2.078-3.246v4.155h-2.857v-9.349h2.597l2.987,4.934,2.987-4.934h2.597v9.349h-2.857.13Z" fill="#00bfb3"/>
  </g>
</svg>